<svg id="visual" viewBox="0 0 900 600" width="900" height="600" xmlns="http://www.w3.org/2000/svg" xmlns:xlink="http://www.w3.org/1999/xlink" version="1.1"><rect x="0" y="0" width="900" height="600" fill="#ffffff"></rect><defs><linearGradient id="grad1_0" x1="33.3%" y1="0%" x2="100%" y2="100%"><stop offset="20%" stop-color="#ffffff" stop-opacity="1"></stop><stop offset="80%" stop-color="#ffffff" stop-opacity="1"></stop></linearGradient></defs><defs><linearGradient id="grad2_0" x1="0%" y1="0%" x2="66.7%" y2="100%"><stop offset="20%" stop-color="#ffffff" stop-opacity="1"></stop><stop offset="80%" stop-color="#ffffff" stop-opacity="1"></stop></linearGradient></defs><g transform="translate(900, 0)"><path d="M0 486.7C-48.1 443.9 -96.1 401.1 -159.2 384.3C-222.3 367.6 -300.3 376.9 -344.2 344.2C-388 311.4 -397.7 236.6 -415.7 172.2C-433.8 107.8 -460.3 53.9 -486.7 0L0 0Z" fill="#FBAE3C"></path></g><g transform="translate(0, 600)"><path d="M0 -486.7C59 -470.6 117.9 -454.4 179.9 -434.2C241.8 -414.1 306.6 -389.9 344.2 -344.2C381.7 -298.5 391.9 -231.2 411.1 -170.3C430.3 -109.3 458.5 -54.7 486.7 0L0 0Z" fill="#FBAE3C"></path></g></svg>