<svg id="visual" viewBox="0 0 900 600" width="900" height="600" xmlns="http://www.w3.org/2000/svg" xmlns:xlink="http://www.w3.org/1999/xlink" version="1.1">
    <path d="M0 205L13.7 193C27.3 181 54.7 157 82 151C109.3 145 136.7 157 163.8 177C191 197 218 225 245.2 228C272.3 231 299.7 209 327 194C354.3 179 381.7 171 409 174C436.3 177 463.7 191 491 181C518.3 171 545.7 137 573 132C600.3 127 627.7 151 654.8 166C682 181 709 187 736.2 187C763.3 187 790.7 181 818 173C845.3 165 872.7 155 886.3 150L900 145L900 0L886.3 0C872.7 0 845.3 0 818 0C790.7 0 763.3 0 736.2 0C709 0 682 0 654.8 0C627.7 0 600.3 0 573 0C545.7 0 518.3 0 491 0C463.7 0 436.3 0 409 0C381.7 0 354.3 0 327 0C299.7 0 272.3 0 245.2 0C218 0 191 0 163.8 0C136.7 0 109.3 0 82 0C54.7 0 27.3 0 13.7 0L0 0Z" fill="#36b796"></path>
    <path d="M0 277L13.7 263C27.3 249 54.7 221 82 219C109.3 217 136.7 241 163.8 259C191 277 218 289 245.2 284C272.3 279 299.7 257 327 243C354.3 229 381.7 223 409 239C436.3 255 463.7 293 491 295C518.3 297 545.7 263 573 256C600.3 249 627.7 269 654.8 281C682 293 709 297 736.2 289C763.3 281 790.7 261 818 245C845.3 229 872.7 217 886.3 211L900 205L900 143L886.3 148C872.7 153 845.3 163 818 171C790.7 179 763.3 185 736.2 185C709 185 682 179 654.8 164C627.7 149 600.3 125 573 130C545.7 135 518.3 169 491 179C463.7 189 436.3 175 409 172C381.7 169 354.3 177 327 192C299.7 207 272.3 229 245.2 226C218 223 191 195 163.8 175C136.7 155 109.3 143 82 149C54.7 155 27.3 179 13.7 191L0 203Z" fill="#21a584"></path>
    <path d="M0 379L13.7 354C27.3 329 54.7 279 82 269C109.3 259 136.7 289 163.8 316C191 343 218 367 245.2 369C272.3 371 299.7 351 327 337C354.3 323 381.7 315 409 322C436.3 329 463.7 351 491 347C518.3 343 545.7 313 573 308C600.3 303 627.7 323 654.8 335C682 347 709 351 736.2 346C763.3 341 790.7 327 818 319C845.3 311 872.7 309 886.3 308L900 307L900 203L886.3 209C872.7 215 845.3 227 818 243C790.7 259 763.3 279 736.2 287C709 295 682 291 654.8 279C627.7 267 600.3 247 573 254C545.7 261 518.3 295 491 293C463.7 291 436.3 253 409 237C381.7 221 354.3 227 327 241C299.7 255 272.3 277 245.2 282C218 287 191 275 163.8 257C136.7 239 109.3 215 82 217C54.7 219 27.3 247 13.7 261L0 275Z" fill="#009473"></path>
    <path d="M0 493L13.7 476C27.3 459 54.7 425 82 412C109.3 399 136.7 407 163.8 417C191 427 218 439 245.2 439C272.3 439 299.7 427 327 420C354.3 413 381.7 411 409 427C436.3 443 463.7 477 491 474C518.3 471 545.7 431 573 421C600.3 411 627.7 431 654.8 450C682 469 709 487 736.2 482C763.3 477 790.7 449 818 434C845.3 419 872.7 417 886.3 416L900 415L900 305L886.3 306C872.7 307 845.3 309 818 317C790.7 325 763.3 339 736.2 344C709 349 682 345 654.8 333C627.7 321 600.3 301 573 306C545.7 311 518.3 341 491 345C463.7 349 436.3 327 409 320C381.7 313 354.3 321 327 335C299.7 349 272.3 369 245.2 367C218 365 191 341 163.8 314C136.7 287 109.3 257 82 267C54.7 277 27.3 327 13.7 352L0 377Z" fill="#008064"></path>
    <path d="M0 601L13.7 601C27.3 601 54.7 601 82 601C109.3 601 136.7 601 163.8 601C191 601 218 601 245.2 601C272.3 601 299.7 601 327 601C354.3 601 381.7 601 409 601C436.3 601 463.7 601 491 601C518.3 601 545.7 601 573 601C600.3 601 627.7 601 654.8 601C682 601 709 601 736.2 601C763.3 601 790.7 601 818 601C845.3 601 872.7 601 886.3 601L900 601L900 413L886.3 414C872.7 415 845.3 417 818 432C790.7 447 763.3 475 736.2 480C709 485 682 467 654.8 448C627.7 429 600.3 409 573 419C545.7 429 518.3 469 491 472C463.7 475 436.3 441 409 425C381.7 409 354.3 411 327 418C299.7 425 272.3 437 245.2 437C218 437 191 425 163.8 415C136.7 405 109.3 397 82 410C54.7 423 27.3 457 13.7 474L0 491Z" fill="#006c55"></path>
</svg>