<svg id="visual" viewBox="0 0 900 600" width="900" height="600" xmlns="http://www.w3.org/2000/svg" xmlns:xlink="http://www.w3.org/1999/xlink" version="1.1">
    <path d="M0 97L13.7 92C27.3 87 54.7 77 82 82C109.3 87 136.7 107 163.8 113C191 119 218 111 245.2 100C272.3 89 299.7 75 327 68C354.3 61 381.7 61 409 64C436.3 67 463.7 73 491 78C518.3 83 545.7 87 573 93C600.3 99 627.7 107 654.8 105C682 103 709 91 736.2 88C763.3 85 790.7 91 818 85C845.3 79 872.7 61 886.3 52L900 43L900 0L886.3 0C872.7 0 845.3 0 818 0C790.7 0 763.3 0 736.2 0C709 0 682 0 654.8 0C627.7 0 600.3 0 573 0C545.7 0 518.3 0 491 0C463.7 0 436.3 0 409 0C381.7 0 354.3 0 327 0C299.7 0 272.3 0 245.2 0C218 0 191 0 163.8 0C136.7 0 109.3 0 82 0C54.7 0 27.3 0 13.7 0L0 0Z" fill="#36b796"></path>
    <path d="M0 223L13.7 222C27.3 221 54.7 219 82 222C109.3 225 136.7 233 163.8 229C191 225 218 209 245.2 202C272.3 195 299.7 197 327 198C354.3 199 381.7 199 409 190C436.3 181 463.7 163 491 157C518.3 151 545.7 157 573 173C600.3 189 627.7 215 654.8 213C682 211 709 181 736.2 166C763.3 151 790.7 151 818 150C845.3 149 872.7 147 886.3 146L900 145L900 41L886.3 50C872.7 59 845.3 77 818 83C790.7 89 763.3 83 736.2 86C709 89 682 101 654.8 103C627.7 105 600.3 97 573 91C545.7 85 518.3 81 491 76C463.7 71 436.3 65 409 62C381.7 59 354.3 59 327 66C299.7 73 272.3 87 245.2 98C218 109 191 117 163.8 111C136.7 105 109.3 85 82 80C54.7 75 27.3 85 13.7 90L0 95Z" fill="#21a584"></path>
    <path d="M0 391L13.7 391C27.3 391 54.7 391 82 385C109.3 379 136.7 367 163.8 358C191 349 218 343 245.2 358C272.3 373 299.7 409 327 399C354.3 389 381.7 333 409 309C436.3 285 463.7 293 491 297C518.3 301 545.7 301 573 307C600.3 313 627.7 325 654.8 330C682 335 709 333 736.2 337C763.3 341 790.7 351 818 364C845.3 377 872.7 393 886.3 401L900 409L900 143L886.3 144C872.7 145 845.3 147 818 148C790.7 149 763.3 149 736.2 164C709 179 682 209 654.8 211C627.7 213 600.3 187 573 171C545.7 155 518.3 149 491 155C463.7 161 436.3 179 409 188C381.7 197 354.3 197 327 196C299.7 195 272.3 193 245.2 200C218 207 191 223 163.8 227C136.7 231 109.3 223 82 220C54.7 217 27.3 219 13.7 220L0 221Z" fill="#009473"></path>
    <path d="M0 517L13.7 524C27.3 531 54.7 545 82 552C109.3 559 136.7 559 163.8 550C191 541 218 523 245.2 521C272.3 519 299.7 533 327 533C354.3 533 381.7 519 409 518C436.3 517 463.7 529 491 538C518.3 547 545.7 553 573 557C600.3 561 627.7 563 654.8 561C682 559 709 553 736.2 542C763.3 531 790.7 515 818 515C845.3 515 872.7 531 886.3 539L900 547L900 407L886.3 399C872.7 391 845.3 375 818 362C790.7 349 763.3 339 736.2 335C709 331 682 333 654.8 328C627.7 323 600.3 311 573 305C545.7 299 518.3 299 491 295C463.7 291 436.3 283 409 307C381.7 331 354.3 387 327 397C299.7 407 272.3 371 245.2 356C218 341 191 347 163.8 356C136.7 365 109.3 377 82 383C54.7 389 27.3 389 13.7 389L0 389Z" fill="#008064"></path>
    <path d="M0 601L13.7 601C27.3 601 54.7 601 82 601C109.3 601 136.7 601 163.8 601C191 601 218 601 245.2 601C272.3 601 299.7 601 327 601C354.3 601 381.7 601 409 601C436.3 601 463.7 601 491 601C518.3 601 545.7 601 573 601C600.3 601 627.7 601 654.8 601C682 601 709 601 736.2 601C763.3 601 790.7 601 818 601C845.3 601 872.7 601 886.3 601L900 601L900 545L886.3 537C872.7 529 845.3 513 818 513C790.7 513 763.3 529 736.2 540C709 551 682 557 654.8 559C627.7 561 600.3 559 573 555C545.7 551 518.3 545 491 536C463.7 527 436.3 515 409 516C381.7 517 354.3 531 327 531C299.7 531 272.3 517 245.2 519C218 521 191 539 163.8 548C136.7 557 109.3 557 82 550C54.7 543 27.3 529 13.7 522L0 515Z" fill="#006c55"></path>
</svg>